<?xml version="1.0" encoding="UTF-8"?>
<svg width="512" height="512" viewBox="0 0 512 512" fill="none" xmlns="http://www.w3.org/2000/svg">
  <g transform="translate(0 0)" fill="#F28B82">
    <path d="M378.676 169.174c-19.55-12.95-36.67-36.16-40.91-55.05-4.25-18.9-15.07-58.05-66.11-40.65-51.037 17.4-30.733 68.101-19.777 84.7 10.956 16.6 26.617 41.733 20.61 62.4-6 20.667-19.333 58.933 9.1 72.5 28.434 13.567 49.234-6.567 64.5-34.6 15.267-28.033 51.767-76.367 32.587-89.3zM254.51 397.174c11.333-20.4 16.5-48.333 8.166-65.667-8.333-17.333-30.665-51.666-73.832-16.666-43.167 35-6.334 67 14.166 77.5 20.5 10.5 47.5 21 52.167 42.166 4.666 21.167 7.5 62.167 41.333 57.167 33.834-5 35.334-35.167 32.834-66.667s-86.167-107.933-74.834-127.833zM148.676 232.674c19.334-13.2 40.334-20.833 56.334-13.667s51.333 29.668 31 79.334c-20.333 49.667-59 22.333-72.333 4.334-13.334-18-27.333-42.334-48-46.667-20.667-4.334-58.333-16.667-52.667-50 5.666-33.334 35.333-34.8 66.333-31.933 31 2.866 99.667 72.8 119.333 59.599zM75.343 91.841c22.667-5.6 45.667-0.533 55 14.866 9.333 15.4 32 50.534-8.334 86.867-40.333 36.333-66-3.533-75.333-24.6-9.333-21.067-17.667-49.066-35.666-58.066-18-9-51.001-31.4-34.667-61.4 16.333-30 44.333-19.867 73.333-8.867 29 11 48.334 56.8 25.667 51.2z"/>
  </g>
</svg>
